<svg xmlns="http://www.w3.org/2000/svg" xmlns:xlink="http://www.w3.org/1999/xlink" version="1.1" width="20" height="200" viewBox="0 0 256 256" xml:space="preserve">

<defs>
</defs>
<g style="stroke: none; stroke-width: 0; stroke-dasharray: none; stroke-linecap: butt; stroke-linejoin: miter; stroke-miterlimit: 10; fill: none; fill-rule: nonzero; opacity: 1;" transform="translate(1.4065934065934016 1.4065934065934016) scale(2.81 2.81)" >
	<path d="M 77.787 90 c 4.391 0 8.621 -2.42 10.729 -6.61 c 2.978 -5.921 0.593 -13.134 -5.327 -16.111 L 38.9 45 l 44.289 -22.278 c 5.92 -2.979 8.305 -10.192 5.327 -16.112 c -2.977 -5.921 -10.193 -8.305 -16.112 -5.327 L 6.806 34.28 C 2.755 36.318 0.199 40.465 0.199 45 s 2.556 8.682 6.607 10.719 l 65.598 32.998 C 74.134 89.587 75.974 90 77.787 90 z" style="stroke: none; stroke-width: 1; stroke-dasharray: none; stroke-linecap: butt; stroke-linejoin: miter; stroke-miterlimit: 10; fill: rgb(77,239,154); fill-rule: nonzero; opacity: 1;" transform=" matrix(1 0 0 1 0 0) " stroke-linecap="round" />
</g>
</svg>